<?xml version="1.0" encoding="UTF-8" standalone="no"?>
<svg
   width="14"
   height="15.999949"
   fill="currentColor"
   class="bi bi-hexagon"
   viewBox="0 0 14 15.999949"
   version="1.1"
   id="svg12"
   sodipodi:docname="hexagon.svg"
   xml:space="preserve"
   inkscape:version="1.2.1 (9c6d41e410, 2022-07-14)"
   xmlns:inkscape="http://www.inkscape.org/namespaces/inkscape"
   xmlns:sodipodi="http://sodipodi.sourceforge.net/DTD/sodipodi-0.dtd"
   xmlns="http://www.w3.org/2000/svg"
   xmlns:svg="http://www.w3.org/2000/svg"><defs
     id="defs16" /><sodipodi:namedview
     id="namedview14"
     pagecolor="#ffffff"
     bordercolor="#cccccc"
     borderopacity="1"
     inkscape:showpageshadow="0"
     inkscape:pageopacity="1"
     inkscape:pagecheckerboard="0"
     inkscape:deskcolor="#d1d1d1"
     showgrid="false"
     inkscape:zoom="26.15625"
     inkscape:cx="2.8673835"
     inkscape:cy="8.4492234"
     inkscape:window-width="1920"
     inkscape:window-height="1017"
     inkscape:window-x="-8"
     inkscape:window-y="-8"
     inkscape:window-maximized="1"
     inkscape:current-layer="svg12" /><path
     d="m 13,4.5769746 v 6.8460004 l -6,3.577 -6,-3.577 V 4.5769746 l 6,-3.577 z m -5.5,-4.443 a 1,1 0 0 0 -1,0 l -6,3.577 a 1,1 0 0 0 -0.5,0.866 v 6.8460004 a 1,1 0 0 0 0.5,0.866 l 6,3.577 a 1,1 0 0 0 1,0 l 6,-3.577 a 1,1 0 0 0 0.5,-0.866 V 4.5769746 a 1,1 0 0 0 -0.5,-0.866 z"
     id="path10"
     style="fill:#000000" /><g
     style="fill:#000000"
     id="g147"
     transform="matrix(0.42114611,0,0,0.42114611,3.6308311,4.6308609)"><path
       fill-rule="evenodd"
       d="m 4.646,1.646 a 0.5,0.5 0 0 1 0.708,0 l 6,6 a 0.5,0.5 0 0 1 0,0.708 l -6,6 A 0.5006316,0.5006316 0 0 1 4.646,13.646 L 10.293,8 4.646,2.354 a 0.5,0.5 0 0 1 0,-0.708 z"
       id="path138"
       style="fill:#000000" /></g></svg>
